# xmcd
#
# Track frame offsets:
#	183
#	26455
#	51293
#
# Disc length: 1098 seconds
#
# Revision: 2
# Processed by: cddbd v1.5.2PL0 Copyright (c) Steve Scherf et al.
# Submitted via: audiograbber 1.83.01
#
DISCID=1d044803
DTITLE=Sheryl Crow - Leaving Las Vegas [CD2]
DYEAR=1994
DGENRE=Rock
TTITLE0=Leaving Las Vegas
TTITLE1=No-one Said It Would Be Easy
TTITLE2=The Na-Na Song
EXTD=A&M 580 647-2
EXTT0=
EXTT1=
EXTT2=
PLAYORDER=
